<?xml version="1.0" encoding="UTF-8"?>
<svg width="50px" height="50px" version="1.1" viewBox="0 0 700 700" xmlns="http://www.w3.org/2000/svg">
 <path d="m536.67 169.17h-14.582l-64.754-86.336c-3.75-5-9.8828-7.6211-16.094-6.875-6.207 0.75-11.543 4.7539-14 10.5-2.4531 5.75-1.6562 12.375 2.0938 17.375l49 65.332-256.66 0.003907 49-65.332v-0.003907c3.75-5 4.5469-11.625 2.0938-17.375-2.457-5.7461-7.793-9.75-14-10.5-6.2109-0.74609-12.344 1.875-16.094 6.875l-64.75 86.336h-14.586c-21.023-0.03125-40.723 10.254-52.711 27.527-11.988 17.27-14.738 39.324-7.3555 59.008 7.3828 19.688 23.953 34.496 44.34 39.625l16.566 132.77v0.003906c2.0664 15.469 9.668 29.668 21.395 39.961 11.73 10.297 26.793 15.996 42.398 16.039h244.07c15.629-0.050781 30.711-5.7695 42.445-16.098 11.73-10.332 19.316-24.566 21.348-40.066l12.367-99.168h-0.003906c0.69531-4.6602-0.51562-9.4062-3.3672-13.16-2.8477-3.7539-7.0938-6.1992-11.77-6.7852-4.6758-0.58594-9.3906 0.74219-13.078 3.6797-3.6836 2.9375-6.0312 7.2383-6.5039 11.926l-12.344 99.074c-0.91797 7.0742-4.375 13.578-9.7266 18.297-5.3516 4.7188-12.234 7.3398-19.367 7.3711h-244.07c-7.1094-0.023438-13.969-2.6172-19.312-7.3047s-8.8125-11.152-9.7578-18.199l-15.727-126.16h353.5c22.922 0 44.105-12.23 55.57-32.082 11.461-19.855 11.461-44.316 0-64.168-11.465-19.852-32.648-32.082-55.57-32.082zm0 93.332h-373.34c-10.418 0-20.047-5.5586-25.258-14.582-5.2109-9.0273-5.2109-20.145 0-29.168 5.2109-9.0234 14.84-14.582 25.258-14.582h373.34c10.418 0 20.047 5.5586 25.258 14.582 5.2109 9.0234 5.2109 20.141 0 29.168-5.2109 9.0234-14.84 14.582-25.258 14.582z"/>
</svg>
